<svg width="14" height="10" viewBox="0 0 14 10" fill="none" xmlns="http://www.w3.org/2000/svg">
<path d="M0.4465 8.16C1.8065 7.248 2.8945 6.344 3.7105 5.448C4.5265 4.544 4.9345 3.704 4.9345 2.928C4.9345 2.448 4.8105 2.064 4.5625 1.776C4.3225 1.48 3.9305 1.332 3.3865 1.332C2.8265 1.332 2.4025 1.512 2.1145 1.872C1.8265 2.224 1.6665 2.712 1.6345 3.336H0.5545C0.6105 2.392 0.9025 1.668 1.4305 1.164C1.9585 0.652 2.6385 0.396 3.4705 0.396C4.2625 0.396 4.8905 0.608 5.3545 1.032C5.8185 1.456 6.0505 2.056 6.0505 2.832C6.0505 3.472 5.8425 4.124 5.4265 4.788C5.0185 5.444 4.5025 6.056 3.8785 6.624C3.2625 7.184 2.6265 7.66 1.9705 8.052H6.2665V8.952H0.4465V8.16ZM10.4591 0.312C11.0031 0.312 11.4711 0.408 11.8631 0.599999C12.2551 0.791999 12.5511 1.056 12.7511 1.392C12.9511 1.728 13.0511 2.108 13.0511 2.532C13.0511 3.06 12.8951 3.504 12.5831 3.864C12.2791 4.224 11.8311 4.44 11.2391 4.512V4.584C11.8551 4.744 12.3351 4.992 12.6791 5.328C13.0311 5.664 13.2071 6.128 13.2071 6.72C13.2071 7.416 12.9751 7.984 12.5111 8.424C12.0471 8.864 11.3791 9.084 10.5071 9.084C9.63509 9.084 8.92709 8.86 8.38309 8.412C7.84709 7.956 7.53109 7.292 7.43509 6.42H8.51509C8.58709 6.948 8.78709 7.368 9.11509 7.68C9.45109 7.992 9.90309 8.148 10.4711 8.148C11.0071 8.148 11.4191 8.012 11.7071 7.74C11.9951 7.46 12.1391 7.1 12.1391 6.66C12.1391 6.132 11.9311 5.732 11.5151 5.46C11.1071 5.18 10.5231 5.04 9.76309 5.04H9.47509V4.128H9.76309C11.2351 4.128 11.9711 3.636 11.9711 2.652C11.9711 2.22 11.8351 1.876 11.5631 1.62C11.2911 1.364 10.9151 1.236 10.4351 1.236C9.95509 1.236 9.55109 1.376 9.22309 1.656C8.89509 1.928 8.70309 2.332 8.64709 2.868H7.57909C7.63509 2.068 7.91109 1.444 8.40709 0.995999C8.91109 0.539999 9.59509 0.312 10.4591 0.312Z" fill="white"/>
</svg>
