<svg width="481" height="380" viewBox="0 0 481 380" fill="none" xmlns="http://www.w3.org/2000/svg">
<g filter="url(#filter0_d)">
<rect x="18" y="12" width="445" height="344" rx="4" fill="white"/>
</g>
<path d="M326.228 41.804C326.228 42.204 326.132 42.576 325.94 42.92C325.748 43.264 325.456 43.544 325.064 43.76C324.672 43.976 324.188 44.084 323.612 44.084C323.052 44.084 322.552 43.984 322.112 43.784C321.68 43.576 321.332 43.296 321.068 42.944C320.812 42.584 320.664 42.176 320.624 41.72H321.788C321.812 41.96 321.892 42.196 322.028 42.428C322.172 42.652 322.372 42.84 322.628 42.992C322.892 43.136 323.208 43.208 323.576 43.208C324.056 43.208 324.424 43.08 324.68 42.824C324.936 42.568 325.064 42.24 325.064 41.84C325.064 41.496 324.972 41.216 324.788 41C324.612 40.784 324.392 40.616 324.128 40.496C323.864 40.368 323.504 40.232 323.048 40.088C322.512 39.912 322.08 39.748 321.752 39.596C321.432 39.436 321.156 39.2 320.924 38.888C320.7 38.576 320.588 38.164 320.588 37.652C320.588 37.212 320.692 36.824 320.9 36.488C321.116 36.152 321.42 35.892 321.812 35.708C322.212 35.524 322.68 35.432 323.216 35.432C324.048 35.432 324.708 35.636 325.196 36.044C325.684 36.444 325.968 36.956 326.048 37.58H324.872C324.808 37.244 324.636 36.948 324.356 36.692C324.076 36.436 323.696 36.308 323.216 36.308C322.776 36.308 322.424 36.424 322.16 36.656C321.896 36.88 321.764 37.2 321.764 37.616C321.764 37.944 321.848 38.212 322.016 38.42C322.192 38.62 322.408 38.78 322.664 38.9C322.92 39.012 323.272 39.14 323.72 39.284C324.264 39.46 324.7 39.628 325.028 39.788C325.364 39.948 325.648 40.192 325.88 40.52C326.112 40.84 326.228 41.268 326.228 41.804ZM331.284 37.304C332.052 37.304 332.672 37.552 333.144 38.048C333.616 38.536 333.852 39.244 333.852 40.172V44H332.76V40.268C332.76 39.612 332.592 39.108 332.256 38.756C331.92 38.404 331.464 38.228 330.888 38.228C330.288 38.228 329.808 38.424 329.448 38.816C329.088 39.2 328.908 39.764 328.908 40.508V44H327.816V35.12H328.908V38.972C329.076 38.436 329.372 38.024 329.796 37.736C330.228 37.448 330.724 37.304 331.284 37.304ZM338.635 37.328C339.267 37.328 339.831 37.464 340.327 37.736C340.831 38.008 341.223 38.4 341.503 38.912C341.791 39.424 341.935 40.024 341.935 40.712C341.935 41.4 341.791 42 341.503 42.512C341.223 43.016 340.831 43.404 340.327 43.676C339.831 43.948 339.267 44.084 338.635 44.084C338.003 44.084 337.435 43.948 336.931 43.676C336.435 43.404 336.043 43.016 335.755 42.512C335.467 42 335.323 41.4 335.323 40.712C335.323 40.024 335.467 39.424 335.755 38.912C336.043 38.4 336.435 38.008 336.931 37.736C337.435 37.464 338.003 37.328 338.635 37.328ZM338.635 38.288C338.243 38.288 337.879 38.376 337.543 38.552C337.215 38.728 336.947 39 336.739 39.368C336.539 39.728 336.439 40.176 336.439 40.712C336.439 41.24 336.539 41.688 336.739 42.056C336.947 42.416 337.215 42.684 337.543 42.86C337.879 43.036 338.243 43.124 338.635 43.124C339.027 43.124 339.387 43.036 339.715 42.86C340.051 42.684 340.319 42.416 340.519 42.056C340.727 41.688 340.831 41.24 340.831 40.712C340.831 40.176 340.727 39.728 340.519 39.368C340.319 39 340.051 38.728 339.715 38.552C339.387 38.376 339.027 38.288 338.635 38.288ZM352.526 37.412L350.63 44H349.454L347.642 38.636L345.818 44H344.63L342.758 37.412H343.862L345.266 42.956L347.09 37.412H348.23L350.066 42.944L351.482 37.412H352.526ZM354.613 37.532V38.816H353.293V37.532H354.613ZM354.613 42.716V44H353.293V42.716H354.613Z" fill="#6A707E"/>
<path d="M364.35 35.54V36.428H361.962V44H360.87V36.428H358.482V35.54H364.35ZM369.024 37.304C369.792 37.304 370.412 37.552 370.884 38.048C371.356 38.536 371.592 39.244 371.592 40.172V44H370.5V40.268C370.5 39.612 370.332 39.108 369.996 38.756C369.66 38.404 369.204 38.228 368.628 38.228C368.028 38.228 367.548 38.424 367.188 38.816C366.828 39.2 366.648 39.764 366.648 40.508V44H365.556V35.12H366.648V38.972C366.816 38.436 367.112 38.024 367.536 37.736C367.968 37.448 368.464 37.304 369.024 37.304ZM373.195 35.48C373.195 35.28 373.263 35.12 373.399 35C373.535 34.872 373.715 34.808 373.939 34.808C374.163 34.808 374.343 34.872 374.479 35C374.615 35.12 374.683 35.28 374.683 35.48C374.683 35.68 374.615 35.844 374.479 35.972C374.343 36.092 374.163 36.152 373.939 36.152C373.715 36.152 373.535 36.092 373.399 35.972C373.263 35.844 373.195 35.68 373.195 35.48ZM374.479 37.412V44H373.387V37.412H374.479ZM378.418 37.328C379.162 37.328 379.758 37.524 380.206 37.916C380.662 38.3 380.938 38.82 381.034 39.476H379.99C379.942 39.084 379.778 38.764 379.498 38.516C379.226 38.26 378.858 38.132 378.394 38.132C378.002 38.132 377.694 38.228 377.47 38.42C377.254 38.604 377.146 38.856 377.146 39.176C377.146 39.416 377.218 39.612 377.362 39.764C377.514 39.908 377.698 40.02 377.914 40.1C378.138 40.172 378.442 40.252 378.826 40.34C379.314 40.452 379.706 40.568 380.002 40.688C380.306 40.8 380.562 40.984 380.77 41.24C380.986 41.496 381.094 41.84 381.094 42.272C381.094 42.808 380.89 43.244 380.482 43.58C380.082 43.916 379.546 44.084 378.874 44.084C378.09 44.084 377.45 43.896 376.954 43.52C376.458 43.144 376.166 42.62 376.078 41.948H377.134C377.174 42.348 377.346 42.672 377.65 42.92C377.962 43.168 378.37 43.292 378.874 43.292C379.25 43.292 379.542 43.196 379.75 43.004C379.966 42.812 380.074 42.56 380.074 42.248C380.074 41.992 379.998 41.788 379.846 41.636C379.694 41.484 379.506 41.368 379.282 41.288C379.058 41.208 378.75 41.124 378.358 41.036C377.87 40.924 377.478 40.812 377.182 40.7C376.894 40.588 376.646 40.412 376.438 40.172C376.238 39.924 376.138 39.592 376.138 39.176C376.138 38.624 376.342 38.18 376.75 37.844C377.158 37.5 377.714 37.328 378.418 37.328ZM393.859 37.304C394.627 37.304 395.243 37.552 395.707 38.048C396.179 38.536 396.414 39.244 396.414 40.172V44H395.323V40.268C395.323 39.62 395.163 39.124 394.843 38.78C394.53 38.436 394.099 38.264 393.547 38.264C392.971 38.264 392.507 38.456 392.154 38.84C391.81 39.216 391.638 39.772 391.638 40.508V44H390.547V40.268C390.547 39.62 390.387 39.124 390.066 38.78C389.746 38.436 389.314 38.264 388.77 38.264C388.186 38.264 387.718 38.456 387.366 38.84C387.022 39.216 386.85 39.772 386.85 40.508V44H385.758V37.412H386.85V38.912C387.01 38.392 387.294 37.996 387.702 37.724C388.118 37.444 388.594 37.304 389.13 37.304C389.69 37.304 390.174 37.448 390.582 37.736C390.998 38.016 391.294 38.432 391.47 38.984C391.655 38.448 391.963 38.036 392.395 37.748C392.826 37.452 393.314 37.304 393.859 37.304ZM401.218 37.328C401.85 37.328 402.414 37.464 402.91 37.736C403.414 38.008 403.806 38.4 404.086 38.912C404.374 39.424 404.518 40.024 404.518 40.712C404.518 41.4 404.374 42 404.086 42.512C403.806 43.016 403.414 43.404 402.91 43.676C402.414 43.948 401.85 44.084 401.218 44.084C400.586 44.084 400.018 43.948 399.514 43.676C399.018 43.404 398.626 43.016 398.338 42.512C398.05 42 397.906 41.4 397.906 40.712C397.906 40.024 398.05 39.424 398.338 38.912C398.626 38.4 399.018 38.008 399.514 37.736C400.018 37.464 400.586 37.328 401.218 37.328ZM401.218 38.288C400.826 38.288 400.462 38.376 400.126 38.552C399.798 38.728 399.53 39 399.322 39.368C399.122 39.728 399.022 40.176 399.022 40.712C399.022 41.24 399.122 41.688 399.322 42.056C399.53 42.416 399.798 42.684 400.126 42.86C400.462 43.036 400.826 43.124 401.218 43.124C401.61 43.124 401.97 43.036 402.298 42.86C402.634 42.684 402.902 42.416 403.102 42.056C403.31 41.688 403.414 41.24 403.414 40.712C403.414 40.176 403.31 39.728 403.102 39.368C402.902 39 402.634 38.728 402.298 38.552C401.97 38.376 401.61 38.288 401.218 38.288ZM409.529 37.304C410.297 37.304 410.917 37.552 411.389 38.048C411.861 38.536 412.097 39.244 412.097 40.172V44H411.005V40.268C411.005 39.612 410.837 39.108 410.501 38.756C410.165 38.404 409.709 38.228 409.133 38.228C408.533 38.228 408.053 38.424 407.693 38.816C407.333 39.2 407.153 39.764 407.153 40.508V44H406.061V37.412H407.153V38.972C407.321 38.436 407.617 38.024 408.041 37.736C408.473 37.448 408.969 37.304 409.529 37.304ZM417.036 43.04V44H416.22C415.548 44 415.044 43.84 414.708 43.52C414.38 43.2 414.216 42.664 414.216 41.912V38.36H413.232V37.412H414.216V35.768H415.32V37.412H417.024V38.36H415.32V41.936C415.32 42.36 415.396 42.652 415.548 42.812C415.708 42.964 415.98 43.04 416.364 43.04H417.036ZM421.957 37.304C422.725 37.304 423.345 37.552 423.817 38.048C424.289 38.536 424.525 39.244 424.525 40.172V44H423.433V40.268C423.433 39.612 423.265 39.108 422.929 38.756C422.593 38.404 422.137 38.228 421.561 38.228C420.961 38.228 420.481 38.424 420.121 38.816C419.761 39.2 419.581 39.764 419.581 40.508V44H418.489V35.12H419.581V38.972C419.749 38.436 420.045 38.024 420.469 37.736C420.901 37.448 421.397 37.304 421.957 37.304Z" fill="#109CF1"/>
<path d="M435.5 42L432.469 39L438.531 39L435.5 42Z" fill="#AEAEAE"/>
<path d="M49.845 33.41V34.79H46.89V44H45.165V34.79H42.225V33.41H49.845ZM54.5859 35.63C55.3359 35.63 55.9759 35.815 56.5059 36.185C57.0359 36.555 57.4109 37.045 57.6309 37.655V35.735H59.3409V44H57.6309V42.08C57.4109 42.69 57.0359 43.18 56.5059 43.55C55.9759 43.92 55.3359 44.105 54.5859 44.105C53.8659 44.105 53.2209 43.935 52.6509 43.595C52.0909 43.255 51.6509 42.765 51.3309 42.125C51.0109 41.485 50.8509 40.73 50.8509 39.86C50.8509 39 51.0109 38.25 51.3309 37.61C51.6509 36.97 52.0909 36.48 52.6509 36.14C53.2209 35.8 53.8659 35.63 54.5859 35.63ZM55.1109 37.13C54.3509 37.13 53.7409 37.375 53.2809 37.865C52.8309 38.345 52.6059 39.01 52.6059 39.86C52.6059 40.71 52.8309 41.38 53.2809 41.87C53.7409 42.35 54.3509 42.59 55.1109 42.59C55.5909 42.59 56.0209 42.48 56.4009 42.26C56.7809 42.03 57.0809 41.71 57.3009 41.3C57.5209 40.89 57.6309 40.41 57.6309 39.86C57.6309 39.32 57.5209 38.845 57.3009 38.435C57.0809 38.015 56.7809 37.695 56.4009 37.475C56.0209 37.245 55.5909 37.13 55.1109 37.13ZM64.258 35.63C65.228 35.63 66.003 35.88 66.583 36.38C67.173 36.87 67.533 37.53 67.663 38.36H66.043C65.973 37.91 65.778 37.55 65.458 37.28C65.148 37 64.733 36.86 64.213 36.86C63.783 36.86 63.448 36.965 63.208 37.175C62.978 37.375 62.863 37.65 62.863 38C62.863 38.26 62.948 38.47 63.118 38.63C63.288 38.79 63.498 38.915 63.748 39.005C64.008 39.095 64.373 39.195 64.843 39.305C65.463 39.445 65.963 39.59 66.343 39.74C66.733 39.89 67.063 40.13 67.333 40.46C67.613 40.78 67.753 41.22 67.753 41.78C67.753 42.47 67.488 43.03 66.958 43.46C66.438 43.89 65.733 44.105 64.843 44.105C63.813 44.105 62.978 43.865 62.338 43.385C61.708 42.905 61.328 42.235 61.198 41.375H62.863C62.913 41.825 63.113 42.19 63.463 42.47C63.813 42.75 64.273 42.89 64.843 42.89C65.253 42.89 65.573 42.785 65.803 42.575C66.043 42.355 66.163 42.08 66.163 41.75C66.163 41.46 66.073 41.23 65.893 41.06C65.713 40.89 65.488 40.76 65.218 40.67C64.948 40.57 64.578 40.47 64.108 40.37C63.508 40.23 63.018 40.09 62.638 39.95C62.268 39.81 61.948 39.585 61.678 39.275C61.418 38.955 61.288 38.525 61.288 37.985C61.288 37.285 61.548 36.72 62.068 36.29C62.598 35.85 63.328 35.63 64.258 35.63ZM74.2978 44L71.3278 40.325V44H69.6178V32.9H71.3278V39.26L74.2678 35.735H76.3228L72.7228 39.845L76.4128 44H74.2978ZM80.393 35.63C81.363 35.63 82.138 35.88 82.718 36.38C83.308 36.87 83.668 37.53 83.798 38.36H82.178C82.108 37.91 81.913 37.55 81.593 37.28C81.283 37 80.868 36.86 80.348 36.86C79.918 36.86 79.583 36.965 79.343 37.175C79.113 37.375 78.998 37.65 78.998 38C78.998 38.26 79.083 38.47 79.253 38.63C79.423 38.79 79.633 38.915 79.883 39.005C80.143 39.095 80.508 39.195 80.978 39.305C81.598 39.445 82.098 39.59 82.478 39.74C82.868 39.89 83.198 40.13 83.468 40.46C83.748 40.78 83.888 41.22 83.888 41.78C83.888 42.47 83.623 43.03 83.093 43.46C82.573 43.89 81.868 44.105 80.978 44.105C79.948 44.105 79.113 43.865 78.473 43.385C77.843 42.905 77.463 42.235 77.333 41.375H78.998C79.048 41.825 79.248 42.19 79.598 42.47C79.948 42.75 80.408 42.89 80.978 42.89C81.388 42.89 81.708 42.785 81.938 42.575C82.178 42.355 82.298 42.08 82.298 41.75C82.298 41.46 82.208 41.23 82.028 41.06C81.848 40.89 81.623 40.76 81.353 40.67C81.083 40.57 80.713 40.47 80.243 40.37C79.643 40.23 79.153 40.09 78.773 39.95C78.403 39.81 78.083 39.585 77.813 39.275C77.553 38.955 77.423 38.525 77.423 37.985C77.423 37.285 77.683 36.72 78.203 36.29C78.733 35.85 79.463 35.63 80.393 35.63Z" fill="#192A3E"/>
<rect x="18" y="66" width="445" height="1" fill="#EBEFF2"/>
<path d="M358.86 185.37H355.76L355.17 187H354.19L356.8 180.08H357.83L360.43 187H359.45L358.86 185.37ZM358.6 184.66L357.31 181.1L356.02 184.66H358.6ZM363.881 181.44C364.581 181.44 365.161 181.627 365.621 182C366.081 182.373 366.364 182.873 366.471 183.5H365.511C365.444 183.107 365.261 182.8 364.961 182.58C364.668 182.353 364.301 182.24 363.861 182.24C363.541 182.24 363.248 182.313 362.981 182.46C362.721 182.607 362.511 182.833 362.351 183.14C362.191 183.44 362.111 183.813 362.111 184.26C362.111 184.707 362.191 185.083 362.351 185.39C362.511 185.69 362.721 185.913 362.981 186.06C363.248 186.207 363.541 186.28 363.861 186.28C364.301 186.28 364.668 186.167 364.961 185.94C365.261 185.713 365.444 185.403 365.511 185.01H366.471C366.364 185.643 366.081 186.147 365.621 186.52C365.161 186.887 364.581 187.07 363.881 187.07C363.354 187.07 362.888 186.957 362.481 186.73C362.074 186.503 361.754 186.18 361.521 185.76C361.294 185.333 361.181 184.833 361.181 184.26C361.181 183.687 361.294 183.187 361.521 182.76C361.754 182.333 362.074 182.007 362.481 181.78C362.888 181.553 363.354 181.44 363.881 181.44ZM370.382 186.2V187H369.702C369.142 187 368.722 186.867 368.442 186.6C368.169 186.333 368.032 185.887 368.032 185.26V182.3H367.212V181.51H368.032V180.14H368.952V181.51H370.372V182.3H368.952V185.28C368.952 185.633 369.015 185.877 369.142 186.01C369.275 186.137 369.502 186.2 369.822 186.2H370.382ZM371.432 179.9C371.432 179.733 371.489 179.6 371.602 179.5C371.716 179.393 371.866 179.34 372.052 179.34C372.239 179.34 372.389 179.393 372.502 179.5C372.616 179.6 372.672 179.733 372.672 179.9C372.672 180.067 372.616 180.203 372.502 180.31C372.389 180.41 372.239 180.46 372.052 180.46C371.866 180.46 371.716 180.41 371.602 180.31C371.489 180.203 371.432 180.067 371.432 179.9ZM372.502 181.51V187H371.592V181.51H372.502ZM376.196 186.03L377.896 181.51H378.876L376.726 187H375.646L373.496 181.51H374.476L376.196 186.03ZM384.919 183.95C384.919 184.143 384.905 184.31 384.879 184.45H380.489C380.509 185.077 380.685 185.547 381.019 185.86C381.359 186.173 381.772 186.33 382.259 186.33C382.699 186.33 383.065 186.22 383.359 186C383.659 185.773 383.842 185.473 383.909 185.1H384.879C384.812 185.48 384.662 185.82 384.429 186.12C384.202 186.42 383.905 186.653 383.539 186.82C383.172 186.987 382.759 187.07 382.299 187.07C381.772 187.07 381.305 186.957 380.899 186.73C380.492 186.503 380.172 186.18 379.939 185.76C379.712 185.333 379.599 184.833 379.599 184.26C379.599 183.687 379.712 183.187 379.939 182.76C380.172 182.333 380.492 182.007 380.899 181.78C381.305 181.553 381.772 181.44 382.299 181.44C382.832 181.44 383.295 181.553 383.689 181.78C384.089 182.007 384.392 182.31 384.599 182.69C384.812 183.07 384.919 183.49 384.919 183.95ZM383.999 184.01C384.019 183.603 383.952 183.263 383.799 182.99C383.645 182.717 383.435 182.513 383.169 182.38C382.902 182.247 382.612 182.18 382.299 182.18C381.799 182.18 381.379 182.337 381.039 182.65C380.699 182.957 380.515 183.41 380.489 184.01H383.999Z" fill="#192A3E"/>
<circle cx="342" cy="184" r="3" stroke="#FFB946" stroke-width="2"/>
<path d="M357.85 207.88C358.71 207.88 359.42 208.093 359.98 208.52C360.54 208.94 360.927 209.517 361.14 210.25H360.18C360 209.783 359.71 209.413 359.31 209.14C358.91 208.86 358.42 208.72 357.84 208.72C357.38 208.72 356.967 208.833 356.6 209.06C356.24 209.28 355.953 209.6 355.74 210.02C355.533 210.433 355.43 210.92 355.43 211.48C355.43 212.033 355.533 212.517 355.74 212.93C355.953 213.343 356.24 213.663 356.6 213.89C356.967 214.11 357.38 214.22 357.84 214.22C358.42 214.22 358.91 214.083 359.31 213.81C359.71 213.53 360 213.157 360.18 212.69H361.14C360.927 213.423 360.54 214.003 359.98 214.43C359.42 214.85 358.71 215.06 357.85 215.06C357.19 215.06 356.607 214.91 356.1 214.61C355.593 214.303 355.197 213.88 354.91 213.34C354.63 212.793 354.49 212.173 354.49 211.48C354.49 210.78 354.63 210.157 354.91 209.61C355.197 209.063 355.593 208.64 356.1 208.34C356.607 208.033 357.19 207.88 357.85 207.88ZM364.947 209.44C365.474 209.44 365.944 209.553 366.357 209.78C366.777 210.007 367.104 210.333 367.337 210.76C367.577 211.187 367.697 211.687 367.697 212.26C367.697 212.833 367.577 213.333 367.337 213.76C367.104 214.18 366.777 214.503 366.357 214.73C365.944 214.957 365.474 215.07 364.947 215.07C364.42 215.07 363.947 214.957 363.527 214.73C363.114 214.503 362.787 214.18 362.547 213.76C362.307 213.333 362.187 212.833 362.187 212.26C362.187 211.687 362.307 211.187 362.547 210.76C362.787 210.333 363.114 210.007 363.527 209.78C363.947 209.553 364.42 209.44 364.947 209.44ZM364.947 210.24C364.62 210.24 364.317 210.313 364.037 210.46C363.764 210.607 363.54 210.833 363.367 211.14C363.2 211.44 363.117 211.813 363.117 212.26C363.117 212.7 363.2 213.073 363.367 213.38C363.54 213.68 363.764 213.903 364.037 214.05C364.317 214.197 364.62 214.27 364.947 214.27C365.274 214.27 365.574 214.197 365.847 214.05C366.127 213.903 366.35 213.68 366.517 213.38C366.69 213.073 366.777 212.7 366.777 212.26C366.777 211.813 366.69 211.44 366.517 211.14C366.35 210.833 366.127 210.607 365.847 210.46C365.574 210.313 365.274 210.24 364.947 210.24ZM375.733 209.42C376.373 209.42 376.886 209.627 377.273 210.04C377.666 210.447 377.863 211.037 377.863 211.81V215H376.953V211.89C376.953 211.35 376.819 210.937 376.553 210.65C376.293 210.363 375.933 210.22 375.473 210.22C374.993 210.22 374.606 210.38 374.313 210.7C374.026 211.013 373.883 211.477 373.883 212.09V215H372.973V211.89C372.973 211.35 372.839 210.937 372.573 210.65C372.306 210.363 371.946 210.22 371.493 210.22C371.006 210.22 370.616 210.38 370.323 210.7C370.036 211.013 369.893 211.477 369.893 212.09V215H368.983V209.51H369.893V210.76C370.026 210.327 370.263 209.997 370.603 209.77C370.949 209.537 371.346 209.42 371.793 209.42C372.259 209.42 372.663 209.54 373.003 209.78C373.349 210.013 373.596 210.36 373.743 210.82C373.896 210.373 374.153 210.03 374.513 209.79C374.873 209.543 375.279 209.42 375.733 209.42ZM382.406 209.44C382.892 209.44 383.326 209.553 383.706 209.78C384.086 210.007 384.382 210.333 384.596 210.76C384.816 211.187 384.926 211.687 384.926 212.26C384.926 212.833 384.816 213.333 384.596 213.76C384.382 214.18 384.086 214.503 383.706 214.73C383.326 214.957 382.892 215.07 382.406 215.07C381.872 215.07 381.419 214.937 381.046 214.67C380.679 214.397 380.426 214.04 380.286 213.6V217.6H379.376V209.51H380.286V210.91C380.426 210.47 380.679 210.117 381.046 209.85C381.419 209.577 381.872 209.44 382.406 209.44ZM382.146 210.25C381.792 210.25 381.472 210.333 381.186 210.5C380.899 210.66 380.676 210.893 380.516 211.2C380.356 211.507 380.276 211.86 380.276 212.26C380.276 212.66 380.356 213.013 380.516 213.32C380.676 213.62 380.899 213.853 381.186 214.02C381.472 214.187 381.792 214.27 382.146 214.27C382.712 214.27 383.162 214.093 383.496 213.74C383.836 213.38 384.006 212.887 384.006 212.26C384.006 211.633 383.836 211.143 383.496 210.79C383.162 210.43 382.712 210.25 382.146 210.25ZM387.124 207.6V215H386.214V207.6H387.124ZM393.737 211.95C393.737 212.143 393.724 212.31 393.697 212.45H389.307C389.327 213.077 389.504 213.547 389.837 213.86C390.177 214.173 390.59 214.33 391.077 214.33C391.517 214.33 391.884 214.22 392.177 214C392.477 213.773 392.66 213.473 392.727 213.1H393.697C393.63 213.48 393.48 213.82 393.247 214.12C393.02 214.42 392.724 214.653 392.357 214.82C391.99 214.987 391.577 215.07 391.117 215.07C390.59 215.07 390.124 214.957 389.717 214.73C389.31 214.503 388.99 214.18 388.757 213.76C388.53 213.333 388.417 212.833 388.417 212.26C388.417 211.687 388.53 211.187 388.757 210.76C388.99 210.333 389.31 210.007 389.717 209.78C390.124 209.553 390.59 209.44 391.117 209.44C391.65 209.44 392.114 209.553 392.507 209.78C392.907 210.007 393.21 210.31 393.417 210.69C393.63 211.07 393.737 211.49 393.737 211.95ZM392.817 212.01C392.837 211.603 392.77 211.263 392.617 210.99C392.464 210.717 392.254 210.513 391.987 210.38C391.72 210.247 391.43 210.18 391.117 210.18C390.617 210.18 390.197 210.337 389.857 210.65C389.517 210.957 389.334 211.41 389.307 212.01H392.817ZM397.647 214.2V215H396.967C396.407 215 395.987 214.867 395.707 214.6C395.434 214.333 395.297 213.887 395.297 213.26V210.3H394.477V209.51H395.297V208.14H396.217V209.51H397.637V210.3H396.217V213.28C396.217 213.633 396.281 213.877 396.407 214.01C396.541 214.137 396.767 214.2 397.087 214.2H397.647ZM403.908 211.95C403.908 212.143 403.894 212.31 403.868 212.45H399.478C399.498 213.077 399.674 213.547 400.008 213.86C400.348 214.173 400.761 214.33 401.248 214.33C401.688 214.33 402.054 214.22 402.348 214C402.648 213.773 402.831 213.473 402.898 213.1H403.868C403.801 213.48 403.651 213.82 403.418 214.12C403.191 214.42 402.894 214.653 402.528 214.82C402.161 214.987 401.748 215.07 401.288 215.07C400.761 215.07 400.294 214.957 399.888 214.73C399.481 214.503 399.161 214.18 398.928 213.76C398.701 213.333 398.588 212.833 398.588 212.26C398.588 211.687 398.701 211.187 398.928 210.76C399.161 210.333 399.481 210.007 399.888 209.78C400.294 209.553 400.761 209.44 401.288 209.44C401.821 209.44 402.284 209.553 402.678 209.78C403.078 210.007 403.381 210.31 403.588 210.69C403.801 211.07 403.908 211.49 403.908 211.95ZM402.988 212.01C403.008 211.603 402.941 211.263 402.788 210.99C402.634 210.717 402.424 210.513 402.158 210.38C401.891 210.247 401.601 210.18 401.288 210.18C400.788 210.18 400.368 210.337 400.028 210.65C399.688 210.957 399.504 211.41 399.478 212.01H402.988ZM407.448 209.44C407.981 209.44 408.431 209.573 408.798 209.84C409.171 210.107 409.431 210.463 409.578 210.91V207.6H410.488V215H409.578V213.6C409.431 214.047 409.171 214.403 408.798 214.67C408.431 214.937 407.981 215.07 407.448 215.07C406.961 215.07 406.528 214.957 406.148 214.73C405.768 214.503 405.468 214.18 405.248 213.76C405.035 213.333 404.928 212.833 404.928 212.26C404.928 211.687 405.035 211.187 405.248 210.76C405.468 210.333 405.768 210.007 406.148 209.78C406.528 209.553 406.961 209.44 407.448 209.44ZM407.708 210.25C407.148 210.25 406.698 210.43 406.358 210.79C406.025 211.143 405.858 211.633 405.858 212.26C405.858 212.887 406.025 213.38 406.358 213.74C406.698 214.093 407.148 214.27 407.708 214.27C408.068 214.27 408.388 214.187 408.668 214.02C408.955 213.853 409.178 213.62 409.338 213.32C409.498 213.013 409.578 212.66 409.578 212.26C409.578 211.86 409.498 211.507 409.338 211.2C409.178 210.893 408.955 210.66 408.668 210.5C408.388 210.333 408.068 210.25 407.708 210.25Z" fill="#192A3E"/>
<circle cx="342" cy="212" r="3" stroke="#2ED47A" stroke-width="2"/>
<path d="M355.64 236.69V239.1H358.32V239.8H355.64V242.26H358.62V243H354.73V235.95H358.62V236.69H355.64ZM362.779 237.42C363.419 237.42 363.935 237.627 364.329 238.04C364.722 238.447 364.919 239.037 364.919 239.81V243H364.009V239.89C364.009 239.343 363.869 238.923 363.589 238.63C363.309 238.337 362.929 238.19 362.449 238.19C361.949 238.19 361.549 238.353 361.249 238.68C360.949 239 360.799 239.47 360.799 240.09V243H359.889V237.51H360.799V238.81C360.939 238.363 361.185 238.02 361.539 237.78C361.899 237.54 362.312 237.42 362.779 237.42ZM368.664 237.44C369.198 237.44 369.648 237.573 370.014 237.84C370.388 238.107 370.648 238.463 370.794 238.91V235.6H371.704V243H370.794V241.6C370.648 242.047 370.388 242.403 370.014 242.67C369.648 242.937 369.198 243.07 368.664 243.07C368.178 243.07 367.744 242.957 367.364 242.73C366.984 242.503 366.684 242.18 366.464 241.76C366.251 241.333 366.144 240.833 366.144 240.26C366.144 239.687 366.251 239.187 366.464 238.76C366.684 238.333 366.984 238.007 367.364 237.78C367.744 237.553 368.178 237.44 368.664 237.44ZM368.924 238.25C368.364 238.25 367.914 238.43 367.574 238.79C367.241 239.143 367.074 239.633 367.074 240.26C367.074 240.887 367.241 241.38 367.574 241.74C367.914 242.093 368.364 242.27 368.924 242.27C369.284 242.27 369.604 242.187 369.884 242.02C370.171 241.853 370.394 241.62 370.554 241.32C370.714 241.013 370.794 240.66 370.794 240.26C370.794 239.86 370.714 239.507 370.554 239.2C370.394 238.893 370.171 238.66 369.884 238.5C369.604 238.333 369.284 238.25 368.924 238.25ZM378.303 239.95C378.303 240.143 378.289 240.31 378.263 240.45H373.873C373.893 241.077 374.069 241.547 374.403 241.86C374.743 242.173 375.156 242.33 375.643 242.33C376.083 242.33 376.449 242.22 376.743 242C377.043 241.773 377.226 241.473 377.293 241.1H378.263C378.196 241.48 378.046 241.82 377.813 242.12C377.586 242.42 377.289 242.653 376.923 242.82C376.556 242.987 376.143 243.07 375.683 243.07C375.156 243.07 374.689 242.957 374.283 242.73C373.876 242.503 373.556 242.18 373.323 241.76C373.096 241.333 372.983 240.833 372.983 240.26C372.983 239.687 373.096 239.187 373.323 238.76C373.556 238.333 373.876 238.007 374.283 237.78C374.689 237.553 375.156 237.44 375.683 237.44C376.216 237.44 376.679 237.553 377.073 237.78C377.473 238.007 377.776 238.31 377.983 238.69C378.196 239.07 378.303 239.49 378.303 239.95ZM377.383 240.01C377.403 239.603 377.336 239.263 377.183 238.99C377.029 238.717 376.819 238.513 376.553 238.38C376.286 238.247 375.996 238.18 375.683 238.18C375.183 238.18 374.763 238.337 374.423 238.65C374.083 238.957 373.899 239.41 373.873 240.01H377.383ZM381.843 237.44C382.376 237.44 382.826 237.573 383.193 237.84C383.566 238.107 383.826 238.463 383.973 238.91V235.6H384.883V243H383.973V241.6C383.826 242.047 383.566 242.403 383.193 242.67C382.826 242.937 382.376 243.07 381.843 243.07C381.356 243.07 380.923 242.957 380.543 242.73C380.163 242.503 379.863 242.18 379.643 241.76C379.43 241.333 379.323 240.833 379.323 240.26C379.323 239.687 379.43 239.187 379.643 238.76C379.863 238.333 380.163 238.007 380.543 237.78C380.923 237.553 381.356 237.44 381.843 237.44ZM382.103 238.25C381.543 238.25 381.093 238.43 380.753 238.79C380.42 239.143 380.253 239.633 380.253 240.26C380.253 240.887 380.42 241.38 380.753 241.74C381.093 242.093 381.543 242.27 382.103 242.27C382.463 242.27 382.783 242.187 383.063 242.02C383.35 241.853 383.573 241.62 383.733 241.32C383.893 241.013 383.973 240.66 383.973 240.26C383.973 239.86 383.893 239.507 383.733 239.2C383.573 238.893 383.35 238.66 383.063 238.5C382.783 238.333 382.463 238.25 382.103 238.25Z" fill="#192A3E"/>
<circle cx="342" cy="240" r="3" stroke="#F7685B" stroke-width="2"/>
<circle cx="178" cy="212" r="112" stroke="#FFB946" stroke-width="8"/>
<path d="M148.061 201.104C147.389 196.699 145.093 194.496 141.173 194.496C138.335 194.496 136.207 195.635 134.789 197.912C133.37 200.152 132.661 203.68 132.661 208.496L132.717 210.4C133.277 208.384 134.49 206.779 136.357 205.584C138.223 204.389 140.426 203.792 142.965 203.792C146.847 203.792 149.89 204.949 152.093 207.264C154.295 209.579 155.397 212.845 155.397 217.064C155.397 219.603 154.893 221.88 153.885 223.896C152.877 225.875 151.365 227.461 149.349 228.656C147.333 229.813 144.85 230.392 141.901 230.392C136.189 230.392 132.269 228.619 130.141 225.072C128.013 221.525 126.949 216.653 126.949 210.456C126.949 203.363 128.087 198.061 130.365 194.552C132.642 191.043 136.375 189.288 141.565 189.288C145.447 189.288 148.415 190.389 150.469 192.592C152.559 194.795 153.773 197.632 154.109 201.104H148.061ZM133.277 216.336C133.277 218.763 133.986 220.797 135.405 222.44C136.823 224.045 138.914 224.848 141.677 224.848C144.029 224.848 145.895 224.157 147.277 222.776C148.695 221.395 149.405 219.472 149.405 217.008C149.405 214.357 148.695 212.323 147.277 210.904C145.858 209.485 143.935 208.776 141.509 208.776C139.306 208.776 137.383 209.429 135.741 210.736C134.098 212.043 133.277 213.909 133.277 216.336ZM161.279 209.952C161.279 216.261 162.399 221.208 164.639 224.792C166.879 228.339 170.613 230.112 175.839 230.112C181.066 230.112 184.799 228.32 187.039 224.736C189.279 221.152 190.399 216.224 190.399 209.952C190.399 203.717 189.279 198.827 187.039 195.28C184.799 191.696 181.066 189.904 175.839 189.904C170.613 189.904 166.879 191.677 164.639 195.224C162.399 198.771 161.279 203.68 161.279 209.952ZM184.015 209.952C184.015 214.507 183.455 217.997 182.335 220.424C181.215 222.851 179.05 224.064 175.839 224.064C172.591 224.064 170.407 222.851 169.287 220.424C168.167 217.997 167.607 214.507 167.607 209.952C167.607 205.435 168.167 201.981 169.287 199.592C170.407 197.203 172.591 196.008 175.839 196.008C179.05 196.008 181.215 197.221 182.335 199.648C183.455 202.037 184.015 205.472 184.015 209.952ZM203.506 189.904C206.007 189.904 208.042 190.688 209.61 192.256C211.178 193.787 211.962 195.877 211.962 198.528C211.962 201.179 211.178 203.269 209.61 204.8C208.042 206.331 206.007 207.096 203.506 207.096C201.004 207.096 198.951 206.331 197.346 204.8C195.778 203.269 194.994 201.179 194.994 198.528C194.994 195.877 195.778 193.787 197.346 192.256C198.951 190.688 201.004 189.904 203.506 189.904ZM227.194 190.408L204.85 230H198.578L220.978 190.408H227.194ZM199.362 198.528C199.362 199.947 199.735 201.085 200.482 201.944C201.228 202.765 202.218 203.176 203.45 203.176C204.682 203.176 205.671 202.747 206.418 201.888C207.202 201.029 207.594 199.909 207.594 198.528C207.594 197.109 207.202 195.971 206.418 195.112C205.671 194.253 204.682 193.824 203.45 193.824C202.218 193.824 201.228 194.253 200.482 195.112C199.735 195.971 199.362 197.109 199.362 198.528ZM222.322 213.312C224.823 213.312 226.858 214.077 228.426 215.608C230.031 217.139 230.834 219.229 230.834 221.88C230.834 224.531 230.031 226.64 228.426 228.208C226.858 229.739 224.823 230.504 222.322 230.504C219.858 230.504 217.823 229.739 216.218 228.208C214.65 226.64 213.866 224.531 213.866 221.88C213.866 219.267 214.65 217.195 216.218 215.664C217.823 214.096 219.858 213.312 222.322 213.312ZM218.234 221.88C218.234 223.299 218.607 224.437 219.354 225.296C220.1 226.155 221.09 226.584 222.322 226.584C223.554 226.584 224.543 226.155 225.29 225.296C226.074 224.437 226.466 223.299 226.466 221.88C226.466 220.499 226.074 219.379 225.29 218.52C224.543 217.661 223.554 217.232 222.322 217.232C221.09 217.232 220.1 217.661 219.354 218.52C218.607 219.379 218.234 220.499 218.234 221.88Z" fill="#2ED47A"/>
<path d="M290 212C290 191.333 284.282 171.069 273.478 153.451C262.674 135.833 247.207 121.548 228.787 112.177C210.367 102.805 189.713 98.7132 169.112 100.353C148.51 101.993 128.764 109.302 112.059 121.47C95.3538 133.637 82.3411 150.19 74.461 169.295C66.581 188.401 64.1409 209.314 67.4107 229.721C70.6806 250.127 79.533 269.231 92.9881 284.918C106.443 300.604 123.976 312.262 143.647 318.601" stroke="#F7685B" stroke-width="8" stroke-linecap="round"/>
<path d="M290 212C290 194.325 285.817 176.901 277.793 161.153C269.769 145.405 258.131 131.779 243.832 121.39C229.533 111.001 212.978 104.144 195.521 101.379C178.064 98.614 160.2 100.02 143.39 105.482C126.58 110.943 111.302 120.306 98.804 132.804C86.3061 145.302 76.9435 160.58 71.4817 177.39C66.0199 194.2 64.614 212.064 67.3789 229.521C70.1439 246.978 77.0012 263.533 87.3901 277.832" stroke="#2ED47A" stroke-width="8" stroke-linecap="round" stroke-linejoin="round"/>
<defs>
<filter id="filter0_d" x="0" y="0" width="481" height="380" filterUnits="userSpaceOnUse" color-interpolation-filters="sRGB">
<feFlood flood-opacity="0" result="BackgroundImageFix"/>
<feColorMatrix in="SourceAlpha" type="matrix" values="0 0 0 0 0 0 0 0 0 0 0 0 0 0 0 0 0 0 127 0" result="hardAlpha"/>
<feOffset dy="6"/>
<feGaussianBlur stdDeviation="9"/>
<feColorMatrix type="matrix" values="0 0 0 0 0 0 0 0 0 0 0 0 0 0 0 0 0 0 0.06 0"/>
<feBlend mode="normal" in2="BackgroundImageFix" result="effect1_dropShadow"/>
<feBlend mode="normal" in="SourceGraphic" in2="effect1_dropShadow" result="shape"/>
</filter>
</defs>
</svg>
