<svg width="24" height="24" viewBox="0 0 24 24" fill="none" xmlns="http://www.w3.org/2000/svg">
<path fill-rule="evenodd" clip-rule="evenodd" d="M12 1.68163C14.6916 1.68163 17.1423 2.71308 18.9794 4.40182C18.079 4.37766 17.1804 4.9129 17.1433 6.13855C17.0675 8.61635 20.1061 9.14415 18.4688 14.1281L17.1145 18.2506L13.4259 7.38512C13.3687 7.21693 13.4352 7.12122 13.6419 7.12122H14.6847C14.7389 7.12122 14.7832 7.07494 14.7832 7.01827V6.40061C14.7832 6.34395 14.7388 6.29534 14.6847 6.29768C12.7099 6.38404 10.7467 6.38462 8.79527 6.29768C8.74091 6.29536 8.69677 6.34414 8.69677 6.40082V7.01848C8.69677 7.0751 8.7411 7.12143 8.79528 7.12143H9.84382C10.0771 7.12143 10.1424 7.19915 10.1974 7.3495L11.7129 11.4943L9.43306 18.3786L5.68547 7.34021C5.63901 7.20175 5.69522 7.12137 5.82857 7.12137H7.02333C7.07751 7.12137 7.12181 7.0751 7.12181 7.01842V6.40076C7.12181 6.34411 7.07735 6.295 7.02333 6.29784C5.76979 6.36442 4.51148 6.37781 3.33934 6.38985C5.17871 3.55643 8.3702 1.68143 11.9993 1.68143L11.9993 1.6814L12 1.68163ZM21.0748 7.08651C21.8677 8.54731 22.3179 10.221 22.3179 11.9994C22.3179 15.9024 20.1493 19.2994 16.9521 21.0529L20.17 11.9385C20.6685 10.5279 21.1313 8.6216 21.0746 7.08651H21.0746H21.0748ZM15.4544 21.7238C14.3741 22.108 13.2117 22.3176 12 22.3176C10.956 22.3176 9.94868 22.1619 8.99901 21.8738L12.1777 12.7646L15.4543 21.7242L15.4544 21.7238ZM7.58472 21.327C4.0954 19.6722 1.68177 16.1173 1.68177 11.9998C1.68177 10.4735 2.01381 9.02452 2.60891 7.7209L7.58495 21.3272L7.58496 21.3272L7.58472 21.327ZM11.9996 0.713371C18.2315 0.713371 23.2856 5.76746 23.2856 11.9994C23.2856 18.2313 18.2315 23.2853 11.9996 23.2853C5.76774 23.2853 0.71365 18.2313 0.71365 11.9994C0.71365 5.76746 5.76774 0.713371 11.9996 0.713371ZM11.9996 0C18.6255 0 23.9993 5.37375 23.9993 11.9996C23.9993 18.6255 18.6255 23.9993 11.9996 23.9993C5.37375 23.9993 0 18.6255 0 11.9996C0 5.37375 5.37375 0 11.9996 0Z" fill="#464342"/>
</svg>
